<?xml version="1.0" encoding="UTF-8" standalone="no"?>
<svg width="28px" height="28px" viewBox="0 0 28 28" version="1.1" xmlns="http://www.w3.org/2000/svg" xmlns:xlink="http://www.w3.org/1999/xlink">
    <!-- Generator: Sketch 3.6.1 (26313) - http://www.bohemiancoding.com/sketch -->
    <title>icon-youtube--dark</title>
    <desc>Created with Sketch.</desc>
    <defs></defs>
    <g id="Desktop" stroke="none" stroke-width="1" fill="none" fill-rule="evenodd">
        <g id="Desktop-HD-Copy" transform="translate(-1061.000000, -4965.000000)" fill="#232120">
            <g id="footer" transform="translate(0.000000, 4604.000000)">
                <g id="footer-content" transform="translate(75.000000, 185.000000)">
                    <g id="column-3" transform="translate(873.000000, 0.000000)">
                        <g id="SM-Links" transform="translate(1.000000, 176.000000)">
                            <g id="icon-youtube--dark" transform="translate(112.400000, 0.000000)">
                                <path d="M16.3923244,21.5172402 C16.3923244,22.1075704 16.2139531,22.3937911 15.8750475,22.3937911 C15.6788391,22.3937911 15.4826306,22.3043471 15.2864222,22.1075704 L15.2864222,18.1004805 C15.4826306,17.9037038 15.6788391,17.8142598 15.8750475,17.8142598 C16.2139531,17.8142598 16.3923244,18.1183693 16.3923244,18.7086995 L16.3923244,21.5172402 Z M19.6743567,19.3348073 L19.6743567,18.7265883 C19.6743567,18.1183693 19.8705651,17.8142598 20.262982,17.8142598 C20.6553989,17.8142598 20.8516074,18.1183693 20.8516074,18.7265883 L20.8516074,19.3348073 L19.6743567,19.3348073 Z M9.48935426,14.5763881 L5.35113962,14.5763881 L5.35113962,15.8286037 L6.74243592,15.8286037 L6.74243592,23.3955636 L8.0623837,23.3955636 L8.0623837,15.8286037 L9.48935426,15.8286037 L9.48935426,14.5763881 Z M13.0746178,16.8303762 L11.87953,16.8303762 L11.87953,21.8392385 C11.611973,22.2149032 11.3800903,22.3937911 11.1303704,22.3937911 C10.9698362,22.3937911 10.8806506,22.3043471 10.8628134,22.1254592 C10.8449763,22.0896816 10.8449763,21.9286825 10.8449763,21.6603506 L10.8449763,16.8303762 L9.66772558,16.8303762 L9.66772558,22.0181264 C9.66772558,22.4832351 9.70339985,22.7873446 9.77474837,22.9841213 C9.88177117,23.3240084 10.1493281,23.4850076 10.5239079,23.4850076 C10.9698362,23.4850076 11.4157645,23.2166756 11.87953,22.6800118 L11.87953,23.3955636 L13.0746178,23.3955636 L13.0746178,16.8303762 Z M17.5695751,18.8160323 C17.5695751,18.1899245 17.5339008,17.7605934 17.4447152,17.4922615 C17.3020181,16.9913753 16.9809497,16.7409322 16.4993472,16.7409322 C16.071256,16.7409322 15.661002,16.9913753 15.2864222,17.4564839 L15.2864222,14.5763881 L14.0913343,14.5763881 L14.0913343,23.3955636 L15.2864222,23.3955636 L15.2864222,22.751567 C15.6788391,23.2345644 16.0890931,23.4850076 16.4993472,23.4850076 C16.9809497,23.4850076 17.3020181,23.2345644 17.4447152,22.7336782 C17.5339008,22.4653463 17.5695751,22.0181264 17.5695751,21.4277962 L17.5695751,18.8160323 Z M22.0466952,21.1236867 L20.8337703,21.1236867 C20.8337703,21.5887954 20.8159331,21.8571273 20.8159331,21.9286825 C20.7445846,22.232792 20.5662133,22.3937911 20.2808192,22.3937911 C19.8705651,22.3937911 19.6743567,22.0896816 19.6743567,21.4814626 L19.6743567,20.318691 L22.0466952,20.318691 L22.0466952,18.9591427 C22.0466952,18.2614797 21.9218353,17.7605934 21.6721155,17.4207064 C21.3510471,16.9734865 20.8694445,16.7409322 20.2808192,16.7409322 C19.6743567,16.7409322 19.1927541,16.9734865 18.8538486,17.4207064 C18.6041287,17.7605934 18.497106,18.2614797 18.497106,18.9591427 L18.497106,21.2667971 C18.497106,21.9644601 18.6219659,22.4832351 18.8716857,22.8052334 C19.2105912,23.2524532 19.6921938,23.4850076 20.3164934,23.4850076 C20.9229559,23.4850076 21.4223956,23.2524532 21.743464,22.7694558 C21.886161,22.5547903 21.9753467,22.3222359 22.011021,22.053904 C22.0288581,21.9286825 22.0466952,21.6782394 22.0466952,21.2846859 L22.0466952,21.1236867 Z M14.0021487,6.38332041 C14.0021487,5.77510141 13.8059402,5.45310312 13.4313604,5.45310312 C13.0389435,5.45310312 12.8605722,5.77510141 12.8605722,6.38332041 L12.8605722,9.17397229 C12.8605722,9.78219128 13.0389435,10.0863008 13.4313604,10.0863008 C13.8059402,10.0863008 14.0021487,9.78219128 14.0021487,9.17397229 L14.0021487,6.38332041 Z M23.5093401,19.1380306 C23.5093401,20.6585781 23.5093401,22.2864583 23.1525974,23.7891171 C22.9207147,24.8266671 22.0645324,25.5958853 21.0478158,25.7211068 C18.6041287,25.9894387 16.1426045,25.9894387 13.6989174,25.9894387 C11.2552303,25.9894387 8.79370611,25.9894387 6.35001902,25.7211068 C5.33330249,25.5958853 4.47712015,24.8266671 4.24523743,23.7891171 C3.88849479,22.2864583 3.88849479,20.6585781 3.88849479,19.1380306 C3.88849479,17.5995943 3.90633192,15.971714 4.24523743,14.4869441 C4.47712015,13.4315053 5.33330249,12.6622871 6.36785615,12.5549544 C8.79370611,12.2866225 11.2552303,12.2866225 13.6989174,12.2866225 C16.1604417,12.2866225 18.6219659,12.2866225 21.0478158,12.5549544 C22.0645324,12.6622871 22.9207147,13.4315053 23.1704346,14.4869441 C23.5093401,15.971714 23.5093401,17.5995943 23.5093401,19.1380306 L23.5093401,19.1380306 Z M10.0423054,7.49242564 L10.0423054,11.0880733 L8.72235758,11.0880733 L8.72235758,7.49242564 C8.59749766,6.84842905 8.32994068,5.91821176 7.90184951,4.66599618 C7.63429253,3.84311165 7.33106128,3.02022712 7.0635043,2.19734259 L8.4548006,2.19734259 L9.4001686,5.68565744 L10.3098623,2.19734259 L11.6476472,2.19734259 L10.0423054,7.49242564 Z M15.1972365,8.94141796 C15.1972365,9.63908093 15.0723766,10.1757448 14.8226567,10.497743 C14.4837512,10.9449629 14.0199858,11.1775172 13.4313604,11.1775172 C12.824898,11.1775172 12.3611325,10.9449629 12.0400641,10.497743 C11.7903443,10.157856 11.6654844,9.63908093 11.6654844,8.94141796 L11.6654844,6.61587473 C11.6654844,5.91821176 11.7903443,5.39943673 12.0400641,5.05954965 C12.3611325,4.61232979 12.824898,4.37977547 13.4313604,4.37977547 C14.0199858,4.37977547 14.4837512,4.61232979 14.8226567,5.05954965 C15.0723766,5.39943673 15.1972365,5.91821176 15.1972365,6.61587473 L15.1972365,8.94141796 Z M18.4257574,11.0880733 L18.4257574,10.3725215 C17.9441549,10.9091853 17.4982266,11.1775172 17.0522983,11.1775172 C16.6777185,11.1775172 16.4101615,11.0165181 16.2853016,10.6945198 C16.2139531,10.4798543 16.1782788,10.1757448 16.1782788,9.71063611 L16.1782788,4.46921944 L17.3733666,4.46921944 L17.3733666,9.33497143 C17.3733666,9.62119214 17.3733666,9.76430249 17.3912038,9.80008008 C17.4090409,9.99685681 17.5160637,10.0863008 17.6765979,10.0863008 C17.9084806,10.0863008 18.1582004,9.90741284 18.4257574,9.53174817 L18.4257574,4.46921944 L19.6208453,4.46921944 L19.6208453,11.0880733 L18.4257574,11.0880733 Z M27.3978349,5.64987985 C27.3978349,2.80556159 25.0968448,0.497907155 22.2607408,0.497907155 L5.13709404,0.497907155 C2.30099004,0.497907155 0,2.80556159 0,5.64987985 L0,22.8231222 C0,25.6674404 2.30099004,27.9750949 5.13709404,27.9750949 L22.2607408,27.9750949 C25.0968448,27.9750949 27.3978349,25.6674404 27.3978349,22.8231222 L27.3978349,5.64987985 Z" id="fa-youtube-square"></path>
                            </g>
                        </g>
                    </g>
                </g>
            </g>
        </g>
    </g>
</svg>