<?xml version="1.0" encoding="UTF-8" standalone="no"?>
<svg width="29px" height="27px" viewBox="0 0 29 27" version="1.1" xmlns="http://www.w3.org/2000/svg" xmlns:xlink="http://www.w3.org/1999/xlink">
    <!-- Generator: Sketch 3.6.1 (26313) - http://www.bohemiancoding.com/sketch -->
    <title>icon-linkedin--dark</title>
    <desc>Created with Sketch.</desc>
    <defs></defs>
    <g id="Desktop" stroke="none" stroke-width="1" fill="none" fill-rule="evenodd">
        <g id="Desktop-HD-Copy" transform="translate(-1009.000000, -4965.000000)" fill="#232120">
            <g id="footer" transform="translate(0.000000, 4604.000000)">
                <g id="footer-content" transform="translate(75.000000, 185.000000)">
                    <g id="column-3" transform="translate(873.000000, 0.000000)">
                        <g id="SM-Links" transform="translate(1.000000, 176.000000)">
                            <g id="icon-linkedin--dark" transform="translate(60.800000, 0.200000)">
                                <path d="M6.22515909,8.52556096 L0.338905509,8.52556096 L0.338905509,26.0260765 L6.22515909,26.0260765 L6.22515909,8.52556096 Z M6.59973887,3.12176909 C6.58190173,1.40880238 5.33330249,0.10200304 3.31770656,0.10200304 C1.31994777,0.10200304 0,1.40880238 0,3.12176909 C0,4.79941689 1.26643638,6.14153513 3.24635804,6.14153513 L3.2820323,6.14153513 C5.33330249,6.14153513 6.617576,4.79941689 6.59973887,3.12176909 L6.59973887,3.12176909 Z M27.3978349,15.9955086 C27.3978349,10.6270356 24.5082195,8.1193936 20.6375618,8.1193936 C17.4625523,8.1193936 16.071256,9.86767921 15.3042593,11.0685218 L15.3399336,11.0685218 L15.3399336,8.52556096 L9.47151713,8.52556096 C9.47151713,8.52556096 9.54286566,10.1678899 9.47151713,26.0260765 L15.3399336,26.0260765 L15.3399336,16.2604003 C15.3399336,15.7306168 15.393445,15.2184927 15.536142,14.8299848 C15.9642332,13.7880772 16.9274383,12.7108507 18.5506174,12.7108507 C20.6732361,12.7108507 21.5294184,14.3178607 21.5294184,16.6665677 L21.5294184,26.0260765 L27.3978349,26.0260765 L27.3978349,15.9955086 Z" id="fa-linkedin"></path>
                            </g>
                        </g>
                    </g>
                </g>
            </g>
        </g>
    </g>
</svg>