<?xml version="1.0" encoding="UTF-8" standalone="no"?>
<svg width="32px" height="27px" viewBox="0 0 32 27" version="1.1" xmlns="http://www.w3.org/2000/svg" xmlns:xlink="http://www.w3.org/1999/xlink">
    <!-- Generator: Sketch 3.6.1 (26313) - http://www.bohemiancoding.com/sketch -->
    <title>icon-envelope</title>
    <desc>Created with Sketch.</desc>
    <defs></defs>
    <g id="Desktop" stroke="none" stroke-width="1" fill="none" fill-rule="evenodd">
        <g id="Desktop-HD-Copy" transform="translate(-730.000000, -4651.000000)" fill="#232120">
            <g id="footer" transform="translate(0.000000, 4604.000000)">
                <g id="Top-Footer">
                    <g id="Newsletter-Sign-Up" transform="translate(730.000000, 35.000000)">
                        <g id="icon-envelope" transform="translate(0.000000, 12.000000)">
                            <path d="M31.1607671,1.67049863 C30.6012055,1.10394247 29.9285479,0.820775342 29.1430137,0.820775342 L2.85720548,0.820775342 C2.07145205,0.820775342 1.39879452,1.10394247 0.839232877,1.67049863 C0.279671233,2.23705479 0,2.91812055 0,3.71369589 L0,23.3853781 C0,24.1809534 0.279671233,24.8615753 0.839232877,25.4281315 C1.39879452,25.9951315 2.07145205,26.2780767 2.85720548,26.2780767 L29.1430137,26.2780767 C29.9285479,26.2780767 30.6012055,25.9951315 31.1607671,25.4281315 C31.7205479,24.8615753 32,24.1807315 32,23.3853781 L32,3.71369589 C32,2.91812055 31.7205479,2.23705479 31.1607671,1.67049863 L31.1607671,1.67049863 Z M29.7139726,23.3849342 C29.7139726,23.5416082 29.6574247,23.6772 29.5443288,23.7917096 C29.4312329,23.9062192 29.2973151,23.9632521 29.1427945,23.9632521 L2.8569863,23.9632521 C2.70224658,23.9632521 2.56832877,23.9062192 2.45523288,23.7917096 C2.34213699,23.6772 2.28558904,23.5416082 2.28558904,23.3849342 L2.28558904,9.49931507 C2.66652055,9.93316438 3.07726027,10.331063 3.51780822,10.6925671 C6.70838356,13.1756055 9.24405479,15.212589 11.1250411,16.8037397 C11.7321644,17.3221397 12.2261918,17.7258082 12.6071233,18.015189 C12.9880548,18.3045699 13.5029041,18.5966137 14.1516712,18.8919863 C14.8004384,19.1873589 15.4106301,19.3347123 15.9820274,19.3347123 L16,19.3347123 L16.0177534,19.3347123 C16.5889315,19.3347123 17.1995616,19.1873589 17.8481096,18.8919863 C18.4970959,18.5966137 19.0121644,18.3045699 19.3930959,18.015189 C19.7738082,17.7258082 20.2680548,17.3221397 20.8751781,16.8037397 C22.7561644,15.212589 25.2916164,13.1756055 28.4821918,10.6925671 C28.9227397,10.331063 29.3336986,9.93316438 29.7141918,9.49931507 L29.7141918,23.3849342 L29.7139726,23.3849342 Z M29.7139726,4.18371781 L29.7139726,4.38255616 C29.7139726,5.09358082 29.4373699,5.88627123 28.8839452,6.75996164 C28.3305205,7.63387397 27.7319452,8.33003014 27.0893151,8.84820822 C24.7914521,10.6805836 22.4048219,12.5908521 19.9283288,14.5796795 C19.8568767,14.6398192 19.6484384,14.8177973 19.3032329,15.1129479 C18.9582466,15.4083205 18.684274,15.6346767 18.4817534,15.7911288 C18.2792329,15.9480247 18.0146849,16.1377644 17.6872329,16.3605699 C17.3597808,16.5833753 17.0592877,16.7493699 16.7855342,16.8576658 C16.5117808,16.9659616 16.2557808,17.0201096 16.0177534,17.0201096 L16,17.0201096 L15.9820274,17.0201096 C15.744,17.0201096 15.4882192,16.9659616 15.2142466,16.8576658 C14.9404932,16.7493699 14.6397808,16.5833753 14.3125479,16.3605699 C13.9853151,16.1377644 13.7203288,15.9480247 13.5180274,15.7911288 C13.315726,15.6346767 13.0417534,15.4083205 12.6965479,15.1129479 C12.3513425,14.8177973 12.1429041,14.6398192 12.0714521,14.5796795 C9.59539726,12.5908521 7.20854795,10.6805836 4.91090411,8.84820822 C3.16076712,7.45012603 2.28580822,5.73847397 2.28580822,3.71347397 C2.28580822,3.5568 2.34235616,3.42120822 2.45545205,3.30669863 C2.56854795,3.19218904 2.70246575,3.13493425 2.85720548,3.13493425 L29.1430137,3.13493425 C29.238137,3.18908219 29.3214247,3.2041726 29.3930959,3.18020548 C29.4645479,3.15579452 29.5180274,3.20106575 29.5535342,3.31557534 C29.5892603,3.43008493 29.6219178,3.48423288 29.651726,3.4782411 C29.6815342,3.47224932 29.6995068,3.54747945 29.7054247,3.70437534 C29.7109041,3.86104932 29.7139726,3.93983014 29.7139726,3.93983014 L29.7139726,4.18371781 L29.7139726,4.18371781 Z" id="Shape"></path>
                        </g>
                    </g>
                </g>
            </g>
        </g>
    </g>
</svg>