<?xml version="1.0" encoding="UTF-8" standalone="no"?>
<svg width="146px" height="50px" viewBox="0 0 146 50" version="1.1" xmlns="http://www.w3.org/2000/svg" xmlns:xlink="http://www.w3.org/1999/xlink">
    <!-- Generator: Sketch 3.6.1 (26313) - http://www.bohemiancoding.com/sketch -->
    <title>ProGARM_Logo_RGB</title>
    <desc>Created with Sketch.</desc>
    <defs>
        <filter x="-50%" y="-50%" width="200%" height="200%" filterUnits="objectBoundingBox" id="filter-1">
            <feOffset dx="0" dy="2" in="SourceAlpha" result="shadowOffsetOuter1"></feOffset>
            <feGaussianBlur stdDeviation="2" in="shadowOffsetOuter1" result="shadowBlurOuter1"></feGaussianBlur>
            <feColorMatrix values="0 0 0 0 0   0 0 0 0 0   0 0 0 0 0  0 0 0 0.35 0" in="shadowBlurOuter1" type="matrix" result="shadowMatrixOuter1"></feColorMatrix>
            <feMerge>
                <feMergeNode in="shadowMatrixOuter1"></feMergeNode>
                <feMergeNode in="SourceGraphic"></feMergeNode>
            </feMerge>
        </filter>
        <path id="path-2" d="M0.0149458484,0.116628822 L137.964379,0.116628822 L137.964379,41.6916822 L0.0149458484,41.6916822 L0.0149458484,0.116628822 Z"></path>
        <path id="path-4" d="M0.0149458484,0.116628822 L137.964379,0.116628822 L137.964379,41.6916822 L0.0149458484,41.6916822"></path>
        <path id="path-6" d="M0.0149458484,0.116628822 L137.964379,0.116628822 L137.964379,41.6916822 L0.0149458484,41.6916822"></path>
        <path id="path-8" d="M0.0149458484,0.116628822 L137.964379,0.116628822 L137.964379,41.6916822 L0.0149458484,41.6916822"></path>
    </defs>
    <g id="Mobile" stroke="none" stroke-width="1" fill="none" fill-rule="evenodd" filter="url(#filter-1)">
        <g id="Mobile-Portrait" transform="translate(-59.000000, -32.000000)">
            <g id="header" transform="translate(0.000000, 20.000000)">
                <g id="ProGARM_Logo_RGB" transform="translate(63.000000, 14.013333)">
                    <path d="M134.469043,0.502727665 C132.755004,0.502727665 131.359061,1.90102483 131.359061,3.6192396 C131.359061,5.33745437 132.755004,6.73600128 134.469043,6.73600128 C136.182585,6.73600128 137.579274,5.33745437 137.579274,3.6192396 C137.579274,1.90102483 136.182585,0.502727665 134.469043,0.502727665 L134.469043,0.502727665 Z M134.469043,7.12210012 C132.541776,7.12210012 130.973957,5.55173174 130.973957,3.6192396 C130.973957,1.68699721 132.541776,0.116628822 134.469043,0.116628822 C136.39631,0.116628822 137.964379,1.68699721 137.964379,3.6192396 C137.964379,5.55173174 136.39631,7.12210012 134.469043,7.12210012 L134.469043,7.12210012 Z" id="Fill-1" fill="#D1DC4C"></path>
                    <g id="Group-7">
                        <mask id="mask-3" fill="white">
                            <use xlink:href="#path-2"></use>
                        </mask>
                        <g id="Clip-3"></g>
                        <path d="M134.615264,2.07459449 L133.269639,2.07459449 L133.269639,3.52883353 L134.661596,3.52883353 C135.022787,3.52883353 135.283094,3.47139321 135.442516,3.35676232 C135.600444,3.24213142 135.680404,3.05532551 135.680404,2.798842 C135.680404,2.53636471 135.600444,2.34905932 135.442516,2.24067194 C135.283094,2.12903792 135.007592,2.07459449 134.615264,2.07459449 L134.615264,2.07459449 Z M132.890762,5.51402092 L132.890762,1.72171114 L134.705437,1.72171114 C135.155058,1.72171114 135.493581,1.80612343 135.721007,1.97819465 C135.948184,2.14701924 136.060776,2.40350275 136.060776,2.74165142 C136.060776,2.99189142 136.008217,3.19418124 135.903097,3.34477477 C135.799224,3.49561804 135.632079,3.61024894 135.406646,3.68567058 C135.599199,3.71613892 135.735704,3.77932327 135.818653,3.87872 C135.901354,3.97536958 135.957152,4.15018794 135.987292,4.4069212 C135.999,4.50332104 136.011206,4.63917988 136.023412,4.81100136 C136.046079,5.176122 136.09565,5.41137756 136.170877,5.51402092 L135.73122,5.51402092 C135.682895,5.36942116 135.651509,5.16713134 135.636563,4.90465405 C135.621617,4.64517365 135.609412,4.47909621 135.600444,4.4069212 C135.576531,4.21961581 135.509025,4.08400671 135.397679,4.00558818 C135.284339,3.92392303 135.107231,3.88496351 134.860126,3.88496351 L133.269639,3.88496351 L133.269639,5.51402092 L132.890762,5.51402092 L132.890762,5.51402092 Z" id="Fill-2" fill="#D1DC4C" mask="url(#mask-3)"></path>
                        <path d="M0.78266426,35.078803 L2.64118051,35.078803 C3.20987004,35.078803 4.16391336,35.2643602 4.16391336,36.5065696 C4.16391336,37.7492784 3.20987004,37.9348356 2.64118051,37.9348356 L0.78266426,37.9348356 L0.78266426,35.078803 L0.78266426,35.078803 Z M2.7004657,34.3538063 L0,34.3538063 L0,41.6469787 L0.78266426,41.6469787 L0.78266426,38.6598323 L2.7004657,38.6598323 C4.04359928,38.6598323 4.94607942,37.7944814 4.94607942,36.5065696 C4.94607942,35.2189075 4.04359928,34.3538063 2.7004657,34.3538063 L2.7004657,34.3538063 Z" id="Fill-4" fill="#FFFFFF" mask="url(#mask-3)"></path>
                        <path d="M13.3576029,36.378203 C13.3576029,37.2038451 12.8387329,37.6773531 11.9335126,37.6773531 L9.98631769,37.6773531 L9.98631769,35.078803 L11.9335126,35.078803 C12.8387329,35.078803 13.3576029,35.5525608 13.3576029,36.378203 L13.3576029,36.378203 Z M14.1402671,36.3682133 C14.1402671,35.1444848 13.3010578,34.3538063 12.0025126,34.3538063 L9.20365343,34.3538063 L9.20365343,41.6469787 L9.98631769,41.6469787 L9.98631769,38.4025996 L11.719787,38.4025996 L13.3972094,41.6469787 L14.3001877,41.6469787 L12.5849025,38.3571468 C13.5626101,38.1266363 14.1402671,37.3941474 14.1402671,36.3682133 L14.1402671,36.3682133 Z" id="Fill-5" fill="#FFFFFF" mask="url(#mask-3)"></path>
                        <path d="M22.6591516,38.0005174 C22.6591516,39.485974 22.6200433,40.005684 22.1524874,40.4739475 C21.8264188,40.8013573 21.384769,40.9814202 20.9092419,40.9814202 C20.4334657,40.9814202 19.9918159,40.8013573 19.6652491,40.4739475 C19.1984404,40.005684 19.159083,39.485974 19.159083,38.0005174 C19.159083,36.514811 19.1984404,35.995101 19.6652491,35.5268375 C19.9915668,35.1996774 20.4332166,35.0196145 20.9092419,35.0196145 C21.3850181,35.0196145 21.8266679,35.1996774 22.1524874,35.5268375 C22.6200433,35.995101 22.6591516,36.514811 22.6591516,38.0005174 L22.6591516,38.0005174 Z M20.9092419,34.2943681 C20.2075343,34.2943681 19.5524079,34.5638381 19.0646751,35.0530798 C18.376917,35.7426133 18.376917,36.450378 18.376917,38.0005174 C18.376917,39.5506568 18.376917,40.2584214 19.0646751,40.9477052 C19.5529061,41.4369469 20.2080325,41.7066667 20.9092419,41.7066667 C21.6104513,41.7066667 22.2655776,41.4369469 22.7538087,40.9477052 C23.4413177,40.2586711 23.4413177,39.5509065 23.4413177,38.0005174 C23.4413177,36.4501282 23.4413177,35.7423636 22.7538087,35.0530798 C22.2660758,34.5638381 21.6107004,34.2943681 20.9092419,34.2943681 L20.9092419,34.2943681 Z" id="Fill-6" fill="#FFFFFF" mask="url(#mask-3)"></path>
                    </g>
                    <path d="M27.1551119,35.078803 L29.2467834,35.078803 L29.2467834,41.6469787 L30.0296968,41.6469787 L30.0296968,35.078803 L32.131083,35.078803 L32.131083,34.3538063 L27.1551119,34.3538063 L27.1551119,35.078803" id="Fill-8" fill="#FFFFFF"></path>
                    <g id="Group-12">
                        <mask id="mask-5" fill="white">
                            <use xlink:href="#path-4"></use>
                        </mask>
                        <g id="Clip-10"></g>
                        <path d="M36.3099422,41.6469787 L40.822343,41.6469787 L40.822343,40.9217322 L37.0928556,40.9217322 L37.0928556,38.3334215 L40.2695957,38.3334215 L40.2695957,37.608175 L37.0928556,37.608175 L37.0928556,35.078803 L40.822343,35.078803 L40.822343,34.3538063 L36.3099422,34.3538063 L36.3099422,41.6469787" id="Fill-9" fill="#FFFFFF" mask="url(#mask-5)"></path>
                        <path d="M48.9877581,39.4977118 C48.7919675,40.412761 48.1241372,40.9814202 47.2448231,40.9814202 C46.7690469,40.9814202 46.327148,40.8013573 46.0010794,40.4739475 C45.5340217,40.005684 45.4949134,39.485974 45.4949134,38.0005174 C45.4949134,36.514811 45.5340217,35.995101 46.0010794,35.5268375 C46.3268989,35.1996774 46.7687978,35.0196145 47.2448231,35.0196145 C48.1251336,35.0196145 48.7692996,35.5742882 48.9678303,36.503323 L48.9890036,36.6024699 L49.7816318,36.6024699 L49.7557256,36.455123 C49.5183357,35.1222579 48.5563213,34.2943681 47.2448231,34.2943681 C46.5428664,34.2943681 45.8879892,34.5638381 45.4005054,35.0530798 C44.7127473,35.7423636 44.7127473,36.4501282 44.7127473,38.0005174 C44.7127473,39.5509065 44.7127473,40.2586711 45.4005054,40.9477052 C45.8884874,41.4369469 46.5433646,41.7066667 47.2448231,41.7066667 C48.5563213,41.7066667 49.5180866,40.8787768 49.7557256,39.5459117 L49.7818809,39.3988145 L49.0089314,39.3988145 L48.9877581,39.4977118" id="Fill-11" fill="#FFFFFF" mask="url(#mask-5)"></path>
                    </g>
                    <path d="M53.4513357,35.078803 L55.5427581,35.078803 L55.5427581,41.6469787 L56.3256715,41.6469787 L56.3256715,35.078803 L58.4270578,35.078803 L58.4270578,34.3538063 L53.4513357,34.3538063 L53.4513357,35.078803" id="Fill-13" fill="#FFFFFF"></path>
                    <path d="M62.6049206,34.3538063 L63.3875848,34.3538063 L63.3875848,41.6469787 L62.6049206,41.6469787 L62.6049206,34.3538063 Z" id="Fill-14" fill="#FFFFFF"></path>
                    <g id="Group-18">
                        <mask id="mask-7" fill="white">
                            <use xlink:href="#path-6"></use>
                        </mask>
                        <g id="Clip-16"></g>
                        <path d="M72.6784224,40.1687646 L68.8149206,34.3538063 L68.0900469,34.3538063 L68.0900469,41.6469787 L68.8729603,41.6469787 L68.8729603,35.8135396 L72.736213,41.6469787 L73.4610866,41.6469787 L73.4610866,34.3538063 L72.6784224,34.3538063 L72.6784224,40.1687646" id="Fill-15" fill="#FFFFFF" mask="url(#mask-7)"></path>
                        <path d="M80.5035704,35.0196145 C81.3826354,35.0196145 82.0502166,35.5882737 82.2460072,36.503323 L82.2671805,36.6024699 L83.0495957,36.6024699 L83.0239386,36.4556225 C82.7950181,35.1427366 81.805852,34.2943681 80.5035704,34.2943681 C79.8018628,34.2943681 79.1464874,34.5638381 78.6590036,35.0530798 C77.9714946,35.7423636 77.9714946,36.4501282 77.9714946,38.0005174 C77.9714946,39.5509065 77.9714946,40.2586711 78.6590036,40.9477052 C79.1469856,41.4369469 79.8021119,41.7066667 80.5035704,41.7066667 C81.24613,41.7066667 81.9520722,41.3962392 82.4405523,40.8548018 C82.8647653,40.3990253 83.0458592,39.8648303 83.0458592,39.0686576 L83.0458592,37.7962296 L80.3787726,37.7962296 L80.3787726,38.5212263 L82.2629458,38.5212263 L82.2629458,39.0291986 C82.2629458,39.6180867 82.148361,39.9991907 81.8673791,40.3445819 C81.535083,40.7491615 81.0381336,40.9814202 80.5035704,40.9814202 C80.0277942,40.9814202 79.5858953,40.8013573 79.2593285,40.4739475 C78.792769,40.005684 78.7536606,39.485974 78.7536606,38.0005174 C78.7536606,36.514811 78.792769,35.995101 79.2593285,35.5268375 C79.5856462,35.1996774 80.0275451,35.0196145 80.5035704,35.0196145" id="Fill-17" fill="#FFFFFF" mask="url(#mask-7)"></path>
                    </g>
                    <path d="M93.8918123,34.3538063 L93.109148,34.3538063 L93.109148,41.6469787 L97.6212996,41.6469787 L97.6212996,40.9217322 L93.8918123,40.9217322 L93.8918123,34.3538063" id="Fill-19" fill="#FFFFFF"></path>
                    <path d="M101.79991,34.3538063 L102.582574,34.3538063 L102.582574,41.6469787 L101.79991,41.6469787 L101.79991,34.3538063 Z" id="Fill-20" fill="#FFFFFF"></path>
                    <path d="M109.31269,40.1765065 L107.430011,34.3538063 L106.604253,34.3538063 L108.967191,41.5610679 L108.99509,41.6469787 L109.630289,41.6469787 L112.020877,34.3538063 L111.195119,34.3538063 L109.31269,40.1765065" id="Fill-21" fill="#FFFFFF"></path>
                    <g id="Group-25">
                        <mask id="mask-9" fill="white">
                            <use xlink:href="#path-8"></use>
                        </mask>
                        <g id="Clip-23"></g>
                        <path d="M116.055011,41.6469787 L120.567412,41.6469787 L120.567412,40.9217322 L116.837924,40.9217322 L116.837924,38.3334215 L120.014664,38.3334215 L120.014664,37.608175 L116.837924,37.608175 L116.837924,35.078803 L120.567412,35.078803 L120.567412,34.3538063 L116.055011,34.3538063 L116.055011,41.6469787" id="Fill-22" fill="#FFFFFF" mask="url(#mask-9)"></path>
                        <path d="M128.750014,38.1710901 C128.423199,37.8986232 128.103606,37.7787478 127.436025,37.6788516 L126.675531,37.5602248 C126.305372,37.504283 125.919022,37.3441993 125.691347,37.1526483 C125.475379,36.9708372 125.370758,36.7013672 125.370758,36.3285046 C125.370758,35.4966189 125.932722,34.9996353 126.87431,34.9996353 C127.648007,34.9996353 128.05578,35.2273986 128.498177,35.6212394 L128.586108,35.6994082 L129.109213,35.1749531 L129.008329,35.086545 C128.3537,34.5166371 127.763588,34.2943681 126.903704,34.2943681 C125.503278,34.2943681 124.598307,35.1005305 124.598307,36.3484838 C124.598307,36.9371222 124.799079,37.4056354 125.193899,37.739039 C125.514238,38.0174997 125.957134,38.2003098 126.509632,38.2824744 L127.328664,38.410841 C127.877426,38.496502 128.046812,38.5584377 128.281462,38.7567317 C128.505401,38.9560246 128.623971,39.2657028 128.623971,39.6525509 C128.623971,40.4844366 127.995498,40.9814202 126.943061,40.9814202 C126.111076,40.9814202 125.630567,40.7808786 125.038213,40.1872453 L124.950032,40.0988372 L124.39878,40.651513 L124.487209,40.7399211 C125.17148,41.4264578 125.874682,41.7066667 126.913668,41.7066667 C128.427682,41.7066667 129.406137,40.8925126 129.406137,39.6325717 C129.406137,39.038439 129.172733,38.5192284 128.750014,38.1710901" id="Fill-24" fill="#FFFFFF" mask="url(#mask-9)"></path>
                    </g>
                    <path d="M5.65999278,13.7636995 L8.11509747,13.7636995 C10.3016751,13.7636995 11.7980036,12.5749346 11.7980036,10.0225865 C11.7980036,7.53991601 10.7236462,6.17633277 7.96165343,6.17633277 L5.65999278,6.17633277 L5.65999278,13.7636995 L5.65999278,13.7636995 Z M0.13600722,2.47018347 L9.80298195,2.47018347 C15.4422996,2.47018347 17.321491,6.21129645 17.321491,9.95265916 C17.321491,15.1272827 13.8311372,17.4700985 8.61379061,17.4700985 L5.65999278,17.4700985 L5.65999278,27.4347452 L0.13600722,27.4347452 L0.13600722,2.47018347 L0.13600722,2.47018347 Z" id="Fill-26" fill="#FFFFFF"></path>
                    <path d="M19.2029242,8.62378986 L24.2665776,8.62378986 L24.2665776,11.141424 L24.3432996,11.141424 C25.417657,9.32331305 26.9134874,8.13454818 29.100065,8.13454818 C29.4072022,8.13454818 29.7524513,8.16951186 30.0593394,8.20447553 L30.0593394,12.8196803 C29.4839242,12.7847166 28.985231,12.7495032 28.4095668,12.7495032 C26.5682383,12.7495032 24.4969928,13.6238448 24.4969928,16.1412292 L24.4969928,27.4347452 L19.2029242,27.4347452 L19.2029242,8.62378986" id="Fill-27" fill="#FFFFFF"></path>
                    <path d="M38.9989495,24.6376514 C41.1474152,24.6376514 41.8379134,22.7496131 41.8379134,18.0292675 C41.8379134,13.3091717 41.1474152,11.4211334 38.9989495,11.4211334 C36.3906498,11.4211334 36.1604838,14.1832636 36.1604838,18.0292675 C36.1604838,21.8755213 36.3906498,24.6376514 38.9989495,24.6376514 L38.9989495,24.6376514 Z M38.9989495,8.13454818 C45.3285162,8.02940743 47.1314838,11.4560971 47.1314838,18.0292675 C47.1314838,24.4628331 45.0216282,27.9242366 38.9989495,27.9242366 C32.6696318,28.0291277 30.8664152,24.6026877 30.8664152,18.0292675 C30.8664152,11.595702 32.9762708,8.13454818 38.9989495,8.13454818 L38.9989495,8.13454818 Z" id="Fill-28" fill="#FFFFFF"></path>
                    <path d="M57.6648195,16.595757 L57.6648195,14.7077186 L66.9115668,14.7077186 L66.9115668,27.4347452 L64.9937653,27.4347452 L64.9937653,23.3090319 L64.9170433,23.3090319 C64.034491,26.1061257 61.1937834,27.8543093 58.4320397,27.8543093 C52.7932202,27.8543093 49.2231552,23.9031646 49.2231552,14.9524644 C49.2231552,6.00151441 52.7932202,2.0506194 58.4320397,2.0506194 C63.6488881,2.0506194 66.4514838,5.16263601 66.7581227,9.462918 L64.3030181,9.462918 C64.3030181,6.45604216 61.9996137,3.93865772 58.4320397,3.93865772 C54.5575776,3.93865772 51.6782599,6.84064255 51.6782599,14.9524644 C51.6782599,23.0642861 54.5575776,25.966271 58.4320397,25.966271 C62.1149458,25.966271 64.6104043,22.9943588 64.6104043,17.1204618 L64.6104043,16.595757 L57.6648195,16.595757" id="Fill-29" fill="#D1DC4C"></path>
                    <path d="M82.099787,18.274263 L77.8800758,4.21836711 L77.8033538,4.21836711 L73.5838917,18.274263 L82.099787,18.274263 L82.099787,18.274263 Z M76.3075235,2.47018347 L79.3766534,2.47018347 L87.4705776,27.4347452 L84.8620289,27.4347452 L82.6370903,20.1623013 L73.0465884,20.1623013 L70.822148,27.4347452 L68.2131011,27.4347452 L76.3075235,2.47018347 L76.3075235,2.47018347 Z" id="Fill-30" fill="#D1DC4C"></path>
                    <path d="M91.7707473,14.1482999 L95.9904585,14.1482999 C99.8649206,14.1482999 102.127971,12.5749346 102.127971,9.25338571 C102.127971,6.17633277 100.708614,4.3582218 96.2589856,4.3582218 L91.7707473,4.3582218 L91.7707473,14.1482999 L91.7707473,14.1482999 Z M89.3156426,2.47018347 L97.4862888,2.47018347 C102.089859,2.47018347 104.583076,4.81299928 104.583076,8.72868088 C104.583076,11.7358065 103.279051,14.4280093 99.6347545,15.0573554 L99.6347545,15.1272827 C103.048635,15.4069921 104.199715,17.1554255 104.314549,21.0361434 L104.39152,23.7635596 C104.429632,25.1271428 104.583076,26.4557624 105.54235,27.4347452 L102.665274,27.4347452 C102.089859,26.5606534 101.974527,25.3019612 101.936664,23.9381282 L101.859444,21.8405576 C101.667888,17.4348851 100.862058,16.0365879 96.4124296,16.0365879 L91.7707473,16.0365879 L91.7707473,27.4347452 L89.3156426,27.4347452 L89.3156426,2.47018347 L89.3156426,2.47018347 Z" id="Fill-31" fill="#D1DC4C"></path>
                    <path d="M107.347061,2.47018347 L111.605134,2.47018347 L118.203227,24.174133 L118.279949,24.174133 L124.878043,2.47018347 L128.9057,2.47018347 L128.9057,27.4347452 L126.450596,27.4347452 L126.450596,5.03152224 L126.373874,5.03152224 L119.277087,27.4347452 L116.975426,27.4347452 L109.878639,5.03152224 L109.802166,5.03152224 L109.802166,27.4347452 L107.347061,27.4347452 L107.347061,2.47018347" id="Fill-32" fill="#D1DC4C"></path>
                </g>
            </g>
        </g>
    </g>
</svg>